<?xml version="1.0" standalone="no"?>
<!DOCTYPE svg PUBLIC "-//W3C//DTD SVG 20010904//EN"
 "http://www.w3.org/TR/2001/REC-SVG-20010904/DTD/svg10.dtd">
<svg version="1.0" xmlns="http://www.w3.org/2000/svg"
 width="1495.000000pt" height="524.000000pt" viewBox="0 0 1495.000000 524.000000"
 preserveAspectRatio="xMidYMid meet">

<g transform="translate(0.000000,524.000000) scale(0.100000,-0.100000)"
fill="#000000" stroke="none">
<path d="M3459 4636 c-42 -21 -71 -30 -81 -25 -9 5 -39 -5 -83 -26 -37 -19
-72 -32 -77 -29 -12 8 -68 -35 -68 -52 0 -8 -9 -14 -20 -14 -11 0 -29 -9 -40
-20 -11 -11 -24 -20 -29 -20 -5 0 -23 -13 -39 -30 -17 -16 -38 -30 -47 -30 -9
0 -14 -4 -11 -9 3 -5 -6 -17 -19 -27 -14 -10 -25 -27 -25 -36 0 -10 -8 -26
-17 -36 -40 -40 -81 -99 -91 -132 -6 -19 -13 -88 -17 -152 -4 -79 -13 -133
-27 -170 -14 -37 -18 -65 -14 -92 5 -29 3 -37 -6 -34 -20 8 -53 -7 -53 -23 0
-8 -4 -15 -10 -16 -27 -5 -31 -105 -10 -241 22 -141 25 -152 40 -152 7 0 18
-13 25 -30 8 -19 20 -30 33 -30 17 0 19 -5 14 -38 l-5 -39 42 8 c81 15 87 22
61 73 -8 15 -15 47 -15 70 0 23 -7 51 -15 63 -13 18 -13 29 -3 66 10 40 10 46
-10 67 -12 13 -22 30 -22 37 0 25 -30 73 -45 73 -15 0 -20 12 -9 23 4 4 19 -4
34 -16 15 -12 42 -30 59 -39 27 -15 31 -22 32 -60 0 -45 16 -136 18 -105 0 10
7 30 15 46 8 15 17 45 19 67 4 36 16 73 38 116 5 10 9 23 9 30 0 22 96 116
121 120 16 2 25 11 27 26 4 25 22 31 22 6 0 -11 6 -14 20 -9 25 8 38 -20 22
-46 -24 -38 -15 -49 41 -49 80 0 105 -30 37 -45 -44 -10 -90 -54 -90 -87 0
-19 5 -28 15 -28 20 0 112 -46 121 -61 3 -6 30 -22 59 -35 29 -12 56 -27 59
-33 7 -10 162 -3 187 10 20 10 55 165 50 219 -3 25 -47 80 -64 80 -5 0 -21 9
-36 19 -15 11 -47 27 -72 36 -117 44 -122 74 -9 66 38 -3 147 52 155 79 2 8 7
35 10 59 7 51 24 81 45 81 9 0 21 5 28 12 7 7 49 18 95 24 69 10 86 10 104 -2
13 -8 48 -14 82 -14 50 0 62 -3 71 -20 15 -29 50 -46 61 -29 12 19 33 -3 58
-62 12 -27 26 -47 32 -43 5 3 17 -12 26 -35 12 -31 22 -41 42 -43 19 -2 27
-10 29 -27 2 -13 10 -31 18 -38 18 -19 18 -83 -2 -180 -18 -87 -23 -163 -11
-170 4 -2 7 3 7 11 0 8 5 18 11 22 8 5 9 -10 5 -50 -5 -36 -3 -56 4 -56 5 0
11 21 11 48 4 110 14 161 71 344 7 23 9 75 5 140 -5 88 -11 115 -41 185 -47
109 -65 137 -195 295 -6 7 -23 28 -37 46 -15 19 -52 46 -83 61 -31 16 -90 47
-130 71 -60 34 -90 45 -150 52 -42 5 -85 14 -96 18 -11 5 -47 8 -80 7 -37 -1
-66 3 -75 11 -8 6 -19 12 -24 11 -5 0 -12 4 -15 10 -4 6 -31 -3 -72 -23z m931
-810 c0 -3 -4 -8 -10 -11 -5 -3 -10 -1 -10 4 0 6 5 11 10 11 6 0 10 -2 10 -4z
m-895 -146 c18 -20 17 -20 -8 -20 -37 0 -56 10 -50 26 8 20 37 17 58 -6z
m-757 -213 c-11 -16 -24 -43 -28 -61 l-8 -31 -1 30 c-1 28 21 130 36 165 3 9
9 -2 14 -29 7 -37 5 -48 -13 -74z m622 98 c0 -8 -7 -15 -15 -15 -8 0 -15 7
-15 15 0 8 7 15 15 15 8 0 15 -7 15 -15z m130 5 c0 -5 -4 -10 -10 -10 -5 0
-10 5 -10 10 0 6 5 10 10 10 6 0 10 -4 10 -10z m40 -42 c0 -13 -12 -31 -25
-41 -22 -16 -25 -16 -25 -2 0 19 29 65 41 65 5 0 9 -10 9 -22z m-780 -208 c0
-5 9 -10 19 -10 10 0 22 -8 25 -17 8 -19 -7 -38 -22 -29 -16 9 -42 66 -31 66
5 0 9 -4 9 -10z m65 -150 c3 -5 1 -10 -4 -10 -6 0 -11 5 -11 10 0 6 2 10 4 10
3 0 8 -4 11 -10z"/>
<path d="M1445 4271 c-3 -6 -3 -11 2 -12 4 0 -3 -5 -17 -11 -33 -14 -10 -22
36 -13 26 4 34 11 32 23 -4 19 -43 29 -53 13z"/>
<path d="M565 4229 c-4 -12 -2 -26 4 -32 8 -8 11 -2 11 21 0 37 -6 41 -15 11z"/>
<path d="M1523 3860 c0 -30 2 -43 4 -27 2 15 2 39 0 55 -2 15 -4 2 -4 -28z"/>
<path d="M1522 3720 c0 -19 2 -27 5 -17 2 9 2 25 0 35 -3 9 -5 1 -5 -18z"/>
<path d="M4012 3589 c3 -9 24 -15 59 -17 67 -4 56 13 -15 24 -39 5 -48 4 -44
-7z"/>
<path d="M3970 3513 c-8 -3 -27 -17 -42 -31 -21 -19 -26 -31 -22 -51 10 -43
38 -100 52 -106 19 -7 32 3 26 20 -4 10 0 12 15 8 33 -8 66 4 81 32 17 31 27
31 52 0 39 -50 92 -20 53 31 -14 18 -14 18 -15 1 0 -17 -4 -16 -31 7 -17 15
-45 34 -61 42 -16 9 -27 18 -24 21 3 3 -2 12 -12 19 -18 14 -46 16 -72 7z m95
-83 c3 -5 1 -10 -4 -10 -6 0 -11 5 -11 10 0 6 2 10 4 10 3 0 8 -4 11 -10z"/>
<path d="M4340 3392 c0 -10 -4 -22 -9 -27 -11 -13 -23 -95 -14 -95 5 0 18 16
30 35 13 19 17 32 10 29 -9 -3 -12 6 -9 36 2 22 1 40 -2 40 -3 0 -6 -8 -6 -18z"/>
<path d="M1496 3281 c-4 -6 -4 -21 0 -35 8 -33 36 -23 32 12 -3 27 -22 40 -32
23z"/>
<path d="M4327 3245 c-15 -14 -27 -34 -27 -43 0 -9 -3 -35 -6 -57 l-6 -40 41
65 c56 90 56 128 -2 75z"/>
<path d="M3487 3231 l-29 -29 47 -28 c58 -34 144 -52 156 -32 14 22 10 37 -16
54 -27 18 -65 11 -65 -12 0 -19 -20 -18 -48 2 -19 13 -22 22 -17 45 4 16 5 29
3 29 -2 0 -16 -14 -31 -29z"/>
<path d="M3770 3141 c0 -13 27 -21 45 -15 8 4 12 10 9 15 -7 12 -54 12 -54 0z"/>
<path d="M2793 3100 c4 -14 7 -31 7 -37 0 -7 5 -13 11 -13 5 0 8 4 5 8 -3 5 4
18 14 30 23 25 27 40 5 22 -12 -10 -18 -10 -32 1 -15 13 -16 11 -10 -11z"/>
<path d="M3341 3033 c-35 -43 -14 -89 70 -155 65 -52 111 -67 71 -25 -12 13
-22 27 -22 31 0 8 143 -1 175 -11 17 -5 18 -4 6 11 -22 26 21 21 51 -6 26 -24
30 -25 116 -31 29 -2 58 -9 64 -15 17 -17 35 -15 42 4 9 24 7 34 -7 34 -7 0
-33 10 -58 22 -30 14 -66 22 -114 23 -43 2 -83 9 -103 20 -18 9 -39 14 -47 12
-15 -6 -42 20 -31 30 4 4 16 2 26 -5 31 -19 70 -15 70 6 0 34 -41 46 -139 38
-94 -7 -144 4 -134 30 9 24 -14 15 -36 -13z m199 -53 c0 -5 -9 -10 -21 -10
-11 0 -17 5 -14 10 3 6 13 10 21 10 8 0 14 -4 14 -10z"/>
<path d="M637 2993 c-3 -5 -1 -17 4 -28 7 -17 8 -17 8 8 1 27 -4 34 -12 20z"/>
<path d="M3930 2905 c0 -8 5 -15 10 -15 6 0 10 7 10 15 0 8 -4 15 -10 15 -5 0
-10 -7 -10 -15z"/>
<path d="M2984 2795 c3 -10 -1 -15 -12 -15 -12 0 -14 -3 -4 -8 7 -5 15 -37 17
-72 3 -35 11 -70 17 -77 5 -7 8 -20 4 -28 -3 -9 -2 -14 3 -11 11 7 21 -18 21
-54 0 -15 7 -33 15 -40 8 -7 15 -18 15 -24 0 -6 15 -46 34 -89 42 -95 104
-180 128 -174 11 3 15 0 11 -9 -3 -8 -10 -11 -17 -7 -6 4 -5 -1 2 -10 12 -14
17 -12 50 24 41 45 80 69 112 69 16 0 20 -6 20 -35 0 -22 6 -38 15 -41 39 -15
11 -88 -59 -153 -29 -28 -34 -67 -12 -109 13 -25 110 -112 125 -112 18 0 85
84 131 165 78 135 168 347 185 435 11 61 15 69 31 63 15 -5 20 12 5 21 -16 10
-72 -13 -91 -37 -11 -13 -34 -27 -52 -30 -18 -3 -41 -8 -50 -12 -13 -5 -18 -2
-18 9 0 8 11 18 25 22 14 4 24 8 23 10 -2 1 -46 8 -98 15 -52 6 -99 15 -104
20 -6 5 -20 9 -33 9 -13 0 -49 13 -81 29 -57 29 -203 133 -234 168 -9 10 -28
30 -41 45 -13 14 -27 33 -30 42 -4 9 -18 16 -33 16 -19 0 -25 -4 -20 -15z"/>
<path d="M2940 2789 c0 -5 5 -7 10 -4 6 3 10 8 10 11 0 2 -4 4 -10 4 -5 0 -10
-5 -10 -11z"/>
<path d="M2911 2696 c-10 -11 -8 -16 9 -21 22 -7 53 11 44 26 -8 14 -40 11
-53 -5z"/>
<path d="M2771 2624 c0 -11 3 -14 6 -6 3 7 2 16 -1 19 -3 4 -6 -2 -5 -13z"/>
<path d="M2861 2546 c-17 -20 19 -39 56 -30 l26 7 -22 19 c-28 22 -45 23 -60
4z"/>
<path d="M692 2270 c0 -14 2 -19 5 -12 2 6 2 18 0 25 -3 6 -5 1 -5 -13z"/>
<path d="M3269 2183 c-3 -16 -5 -63 -3 -63 13 0 31 34 27 50 -5 19 -22 28 -24
13z"/>
<path d="M716 1815 c3 -115 9 -288 15 -383 10 -173 4 -225 -31 -307 -45 -104
-82 -284 -85 -405 0 -26 32 -22 67 8 18 16 51 39 73 50 22 11 50 30 62 41 12
12 29 21 38 21 8 0 15 9 15 20 0 14 -7 20 -24 20 -20 0 -25 6 -30 38 -20 114
-41 306 -56 507 -6 77 -15 190 -21 250 -5 61 -14 164 -19 230 -7 103 -8 90 -4
-90z"/>
<path d="M5040 1920 c0 -5 7 -10 16 -10 8 0 12 5 9 10 -3 6 -10 10 -16 10 -5
0 -9 -4 -9 -10z"/>
<path d="M2080 1754 c0 -14 4 -23 10 -19 6 3 10 15 10 26 0 10 -4 19 -10 19
-5 0 -10 -12 -10 -26z"/>
<path d="M1898 1743 c7 -3 16 -2 19 1 4 3 -2 6 -13 5 -11 0 -14 -3 -6 -6z"/>
<path d="M2250 1655 c0 -53 1 -56 39 -79 38 -24 39 -26 55 -123 32 -183 31
-166 7 -158 -15 5 -21 2 -21 -9 0 -9 9 -16 20 -16 27 0 35 -23 59 -171 28
-169 93 -396 143 -494 38 -76 136 -245 142 -245 1 0 51 -9 109 -19 67 -12 118
-27 136 -40 40 -29 153 -152 214 -233 l50 -68 78 0 c46 0 79 4 79 10 0 13 47
13 55 0 4 -6 63 -9 148 -9 l142 2 -90 9 c-69 7 -95 14 -112 30 -16 15 -30 19
-51 15 -57 -11 -98 48 -51 74 12 6 32 9 46 6 21 -4 24 -2 19 17 -3 11 -6 24
-6 29 0 4 -7 7 -15 7 -16 0 -20 16 -16 62 2 20 -9 40 -38 71 -23 24 -41 48
-41 52 0 4 -20 30 -45 57 -25 28 -45 54 -45 58 0 4 -16 32 -36 61 -41 60 -139
262 -172 354 -12 33 -33 101 -46 150 -13 50 -36 131 -51 180 -15 50 -32 106
-37 126 -17 64 -90 117 -228 169 -47 17 -123 46 -170 65 -47 18 -96 36 -110
40 -14 4 -40 16 -57 27 l-33 20 -1 -49 -1 -48 -13 30 c-8 17 -14 40 -15 52 0
12 -9 27 -20 33 -19 10 -20 8 -20 -45z m666 -742 c33 -37 56 -80 65 -123 4
-19 10 -45 14 -57 6 -19 3 -22 -24 -21 -47 2 -106 69 -120 140 -7 30 -9 62 -5
71 9 25 42 20 70 -10z m84 -233 c0 -13 -5 -18 -15 -14 -8 4 -15 12 -15 20 0 8
7 14 15 14 8 0 15 -9 15 -20z"/>
<path d="M1538 1663 c7 -3 16 -2 19 1 4 3 -2 6 -13 5 -11 0 -14 -3 -6 -6z"/>
<path d="M1593 1663 c9 -2 25 -2 35 0 9 3 1 5 -18 5 -19 0 -27 -2 -17 -5z"/>
<path d="M1405 1645 c-38 -17 -25 -17 50 -1 56 13 58 14 20 15 -22 0 -53 -6
-70 -14z"/>
<path d="M2684 1626 c-3 -8 -3 -20 1 -26 9 -14 45 -13 45 3 -1 30 -37 48 -46
23z"/>
<path d="M1285 1600 c-33 -16 -55 -29 -50 -30 19 -1 135 44 135 52 0 13 -22 8
-85 -22z"/>
<path d="M1023 1579 c-6 -6 -22 -17 -35 -23 -24 -12 -31 -47 -10 -53 6 -3 12
2 12 10 0 9 12 29 26 46 25 30 29 42 7 20z"/>
<path d="M1175 1542 c-33 -16 -99 -71 -157 -130 -35 -34 -51 -82 -28 -82 6 0
10 6 10 13 0 17 80 93 106 101 11 4 27 18 34 32 8 13 29 34 47 45 18 11 33 25
33 30 0 12 -9 10 -45 -9z"/>
<path d="M2230 1425 c0 -5 5 -17 10 -25 5 -8 10 -10 10 -5 0 6 -5 17 -10 25
-5 8 -10 11 -10 5z"/>
<path d="M2160 1402 c0 -17 49 -54 64 -49 23 9 20 21 -13 40 -31 18 -51 22
-51 9z"/>
<path d="M4409 1353 l-44 -26 32 -161 c51 -246 44 -314 -41 -415 -58 -69 -58
-71 -41 -172 17 -99 13 -159 -14 -224 -10 -22 -21 -53 -25 -70 -8 -32 -23 -55
-37 -55 -4 0 -25 19 -46 42 -60 66 -85 88 -100 88 -19 0 -52 40 -53 63 0 21
-30 23 -30 2 0 -9 -9 -33 -20 -55 -25 -49 -25 -47 5 -54 14 -4 46 -22 71 -41
25 -19 49 -35 52 -35 11 0 41 -75 53 -131 8 -36 8 -53 0 -63 -6 -7 -9 -21 -5
-30 5 -14 29 -16 180 -16 96 0 174 2 174 5 0 3 -9 25 -20 47 -34 70 -21 123
35 157 29 16 32 23 29 56 -1 21 -8 50 -14 65 -9 21 -9 34 -1 48 6 12 11 31 11
44 0 21 37 106 51 118 8 7 29 289 30 418 1 78 -2 107 -13 120 -9 9 -18 32 -22
51 -3 19 -14 43 -23 53 -19 21 -30 40 -75 125 -17 34 -37 64 -43 67 -6 2 -31
-7 -56 -21z"/>
<path d="M1747 698 c-15 -33 -25 -63 -22 -66 3 -3 5 0 5 6 0 26 33 43 79 40
41 -2 46 0 49 20 3 17 -2 22 -19 22 -13 0 -32 9 -44 20 l-21 20 -27 -62z"/>
<path d="M3487 640 c-3 -11 -1 -20 4 -20 5 0 9 9 9 20 0 11 -2 20 -4 20 -2 0
-6 -9 -9 -20z"/>
<path d="M3620 643 c0 -5 7 -18 15 -29 13 -18 14 -18 8 4 -5 22 -23 41 -23 25z"/>
<path d="M3478 563 c-3 -21 -2 -81 2 -133 4 -52 7 -83 8 -67 1 15 6 27 12 27
5 0 7 13 3 31 -3 17 0 54 7 83 9 40 10 58 1 74 -17 32 -28 27 -33 -15z"/>
<path d="M3651 522 c12 -35 29 -52 29 -29 0 8 -9 25 -20 38 l-20 24 11 -33z"/>
<path d="M3716 433 c-10 -10 -7 -53 4 -53 6 0 10 9 10 19 0 11 5 21 12 23 8 3
6 6 -4 10 -9 4 -19 4 -22 1z"/>
<path d="M3800 426 c0 -8 9 -18 20 -21 11 -4 18 -11 15 -16 -4 -5 1 -9 9 -9 9
0 16 -4 16 -10 0 -13 47 -13 55 -1 3 5 1 12 -5 16 -5 3 -10 17 -10 31 0 22 -4
24 -50 24 -37 0 -50 -4 -50 -14z"/>
<path d="M3925 280 c-11 -4 -36 -12 -55 -17 l-35 -10 42 -12 c60 -17 74 -34
67 -82 -7 -39 -6 -40 35 -56 32 -12 41 -21 41 -40 0 -12 -6 -23 -13 -23 -7 0
-20 -9 -30 -20 -16 -19 -16 -20 8 -20 14 0 42 7 62 15 32 14 39 14 59 0 31
-20 34 -19 34 9 0 33 -27 93 -56 124 -13 15 -24 30 -24 34 0 11 -96 108 -106
107 -5 0 -18 -4 -29 -9z"/>
<path d="M3568 241 c-9 -11 -14 -21 -12 -24 7 -7 65 7 65 16 -1 4 -1 12 -1 17
0 17 -35 11 -52 -9z"/>
<path d="M3823 27 c-4 -8 -17 -17 -28 -20 -11 -2 8 -5 43 -6 55 -1 63 1 60 17
-4 22 -63 29 -75 9z"/>
</g>
</svg>
